<svg version="1.1" xmlns="http://www.w3.org/2000/svg" viewBox="0 0 142 142" width="142" height="142">
  <!-- svg-source:excalidraw -->
  
  <defs>
    <style class="style-fonts">
      @font-face {
        font-family: "Virgil";
        src: url("https://excalidraw.com/Virgil.woff2");
      }
      @font-face {
        font-family: "Cascadia";
        src: url("https://excalidraw.com/Cascadia.woff2");
      }
    </style>
    
  </defs>
  <g stroke-linecap="round" transform="translate(10 10) rotate(0 61 61)"><path d="M84.55 5.54 C93.43 7.9, 103.54 14.92, 109.53 22.33 C115.52 29.74, 119.03 40.54, 120.49 49.98 C121.95 59.42, 120.72 69.83, 118.29 78.95 C115.86 88.08, 112.18 98.21, 105.92 104.72 C99.65 111.23, 89.72 115.33, 80.72 117.99 C71.72 120.66, 61.44 122.45, 51.94 120.7 C42.44 118.95, 31.73 113.53, 23.71 107.5 C15.69 101.48, 8 92.88, 3.83 84.56 C-0.33 76.25, -1.76 66.8, -1.29 57.61 C-0.81 48.42, 1.46 37.86, 6.69 29.43 C11.92 21, 21.55 12.12, 30.1 7.03 C38.65 1.95, 47.41 -1.54, 58.01 -1.1 C68.61 -0.65, 87.37 7.38, 93.71 9.7 C100.05 12.03, 96.67 12.34, 96.06 12.85 M25.68 13.01 C33.17 6.44, 45.75 0.52, 55.11 -1.26 C64.47 -3.05, 73.17 -1.04, 81.85 2.3 C90.54 5.64, 101.27 11.8, 107.24 18.78 C113.21 25.76, 115.55 34.52, 117.66 44.19 C119.76 53.86, 121.68 66.83, 119.86 76.8 C118.04 86.76, 112.49 97.41, 106.72 103.98 C100.95 110.55, 94.21 112.9, 85.23 116.22 C76.26 119.54, 63.02 124.82, 52.86 123.89 C42.71 122.96, 31.95 116.12, 24.3 110.65 C16.65 105.18, 11.42 99.08, 6.97 91.06 C2.53 83.03, -2.27 72.42, -2.36 62.51 C-2.45 52.6, 1.95 39.84, 6.42 31.58 C10.88 23.33, 20.73 16.09, 24.44 12.97 C28.14 9.85, 27.54 12.8, 28.64 12.86" stroke="#1971c2" stroke-width="4" fill="none"></path></g></svg>