<svg version="1.1" xmlns="http://www.w3.org/2000/svg" viewBox="0 0 512.9616032788427 513.6461954066615" width="512.9616032788427" height="513.6461954066615">
  <!-- svg-source:excalidraw -->
  
  <defs>
    <style class="style-fonts">
      @font-face {
        font-family: "Virgil";
        src: url("https://excalidraw.com/Virgil.woff2");
      }
      @font-face {
        font-family: "Cascadia";
        src: url("https://excalidraw.com/Cascadia.woff2");
      }
    </style>
    
  </defs>
  <g stroke-linecap="round"><g transform="translate(168.56494502225763 9.99862760374981) rotate(0 0.6932497080525479 246.49420382765413)"><path d="M0.97 0.61 C-1.48 121.46, -0.74 244.73, -0.21 492.37 M-0.08 0.65 C2.61 103.17, 3.2 206.86, -0.34 491.6" stroke="#1e1e1e" stroke-width="4" fill="none"></path></g></g><mask></mask><g stroke-linecap="round"><g transform="translate(345.87139127217347 10.532876659372505) rotate(0 -0.19459685501493595 246.29022104395824)"><path d="M-1.4 -0.53 C1.72 136.29, 2.17 271.48, -1.49 493.11 M-0.13 -0.15 C0.08 135.51, -0.72 270.19, 0.28 492.06" stroke="#1e1e1e" stroke-width="4" fill="none"></path></g></g><mask></mask><g stroke-linecap="round"><g transform="translate(257.1005904466772 -78.93487748356483) rotate(89.99999999999994 -1.4570380204629316 246.03190975206593)"><path d="M-0.66 0.74 C-3.66 166.27, -4.94 332.9, -0.41 491.85 M0.46 0.22 C-0.97 185.74, -0.35 372.35, -0.53 491.77" stroke="#1e1e1e" stroke-width="4" fill="none"></path></g></g><mask></mask><g stroke-linecap="round"><g transform="translate(256.5609001959458 99.20511722938181) rotate(89.99999999999994 -0.13533179417527208 246.08009855652443)"><path d="M-0.21 0.37 C-3.12 132.85, -2.05 263.33, 1.3 491.75 M-0.34 -0.4 C2.53 138.52, 1.72 276.69, 0.61 492.56" stroke="#1e1e1e" stroke-width="4" fill="none"></path></g></g><mask></mask></svg>