<svg version="1.1" xmlns="http://www.w3.org/2000/svg" viewBox="0 0 178.92945662957732 179.31504654092902" width="178.92945662957732" height="179.31504654092902">
  <!-- svg-source:excalidraw -->
  
  <defs>
    <style class="style-fonts">
      @font-face {
        font-family: "Virgil";
        src: url("https://excalidraw.com/Virgil.woff2");
      }
      @font-face {
        font-family: "Cascadia";
        src: url("https://excalidraw.com/Cascadia.woff2");
      }
    </style>
    
  </defs>
  <rect x="0" y="0" width="178.92945662957732" height="179.31504654092902" fill="#ffffff"></rect><g stroke-linecap="round"><g transform="translate(61.83285157195087 10.56222466383366) rotate(0 -0.047222128652492756 79.52603345152897)"><path d="M1.08 0.3 C2.18 53.26, 0.56 109.58, -1.53 158.75 M0.27 0.43 C-0.84 44.81, -2.37 89.84, 0.89 156.85" stroke="#1e1e1e" stroke-width="2" fill="none"></path></g></g><mask></mask><g stroke-linecap="round"><g transform="translate(118.44184275165117 10.73279545083642) rotate(0 0.31325847825297615 77.87498571046606)"><path d="M0.86 -0.73 C0.08 43.4, -0.68 85.29, -0.26 155.13 M0.69 -0.26 C-0.41 62.52, 1.32 125.38, 0.96 156.48" stroke="#1e1e1e" stroke-width="2" fill="none"></path></g></g><mask></mask><g stroke-linecap="round"><g transform="translate(90.0998078892394 -17.83175712051451) rotate(89.99999999999994 0.5809725755825639 78.66811831363452)"><path d="M-0.77 1.59 C-0.86 51.15, 0.41 97, 2 157.62 M-0.84 -0.29 C1.98 53.66, 2.05 107.19, -0.09 156.73" stroke="#1e1e1e" stroke-width="2" fill="none"></path></g></g><mask></mask><g stroke-linecap="round"><g transform="translate(89.92749988076253 39.043362779204585) rotate(89.99999999999994 -0.2953216874177542 79.11584769257323)"><path d="M-1.53 1.67 C-0.87 39.42, 1.39 83.28, 0.86 158.47 M0.89 -0.24 C-0.35 42.47, -1.4 85.78, -0.69 157.55" stroke="#1e1e1e" stroke-width="2" fill="none"></path></g></g><mask></mask><g stroke-linecap="round"><g transform="translate(72.28630512111852 108.49095970807883) rotate(0 17.72905876322494 -19.253268833484753)"><path d="M-0.26 -1.95 C16.03 -13.52, 28.66 -26.43, 35.72 -37.91 M0.96 -0.6 C9.42 -10.09, 18.64 -19.09, 35.52 -35.99" stroke="#e03131" stroke-width="2" fill="none"></path></g></g><mask></mask><g stroke-linecap="round"><g transform="translate(108.14046480616935 108.65948674820066) rotate(0 -17.408921433825356 -18.258186216678723)"><path d="M2 0.54 C-12.99 -12.87, -28.27 -29.82, -36.81 -34.46 M-0.09 -0.35 C-11.05 -9.76, -21.09 -19.99, -36.14 -37.06" stroke="#e03131" stroke-width="2" fill="none"></path></g></g><mask></mask><g stroke-linecap="round"><g transform="translate(127.10191610213224 107.91315189191658) rotate(0 17.643342882607442 -17.064464177217587)"><path d="M0.86 1.39 C6.45 -9.1, 13.72 -12.98, 35.76 -34.32 M-0.69 0.47 C8.01 -8.32, 17.53 -18.09, 35.98 -35.52" stroke="#e03131" stroke-width="2" fill="none"></path></g></g><mask></mask><g stroke-linecap="round"><g transform="translate(162.95607578718295 108.08167893203841) rotate(0 -18.97619958056913 -18.467041015837594)"><path d="M-0.52 -1.67 C-12.59 -9.83, -24.34 -21.54, -37.44 -36.41 M-0.72 0.25 C-9.23 -10.24, -19.18 -18.28, -36.81 -37.18" stroke="#e03131" stroke-width="2" fill="none"></path></g></g><mask></mask><g stroke-linecap="round"><g transform="translate(72.27684787462636 56.33888937901162) rotate(0 17.475117704112392 -17.91935058518152)"><path d="M-0.58 1.78 C13 -11.17, 25.66 -26.64, 35.53 -37.62 M0.1 -0.82 C12.58 -11.95, 24.85 -26.2, 35.48 -35.75" stroke="#e03131" stroke-width="2" fill="none"></path></g></g><mask></mask><g stroke-linecap="round"><g transform="translate(108.13100755967707 56.507416419133506) rotate(0 -18.44184685147212 -17.878261408049894)"><path d="M-0.47 1.92 C-8.94 -7.7, -16.3 -16.75, -35.29 -37.67 M-0.26 0.72 C-12.38 -13.02, -24.35 -23.37, -36.62 -35.32" stroke="#e03131" stroke-width="2" fill="none"></path></g></g><mask></mask><g stroke-linecap="round" transform="translate(15.701996053081189 70.35397906130572) rotate(0 19.47559457085083 19.47559457085086)"><path d="M19.1 -0.7 C23.15 -0.99, 28.48 1.51, 31.58 4.12 C34.67 6.74, 36.68 11.03, 37.67 15 C38.65 18.96, 39.42 24.28, 37.47 27.9 C35.53 31.52, 29.88 35.08, 25.98 36.71 C22.09 38.33, 17.78 38.63, 14.11 37.67 C10.44 36.7, 6.41 34.49, 3.97 30.9 C1.52 27.31, -1.12 20.54, -0.58 16.12 C-0.05 11.71, 3.49 6.94, 7.17 4.41 C10.86 1.88, 18.94 1.59, 21.51 0.93 C24.08 0.27, 22.78 0.33, 22.59 0.46 M18.73 -0.83 C22.83 -1.64, 27.48 1.16, 30.66 3.71 C33.84 6.25, 36.88 10.63, 37.81 14.44 C38.75 18.25, 37.92 22.58, 36.29 26.56 C34.65 30.54, 31.74 36.4, 27.99 38.32 C24.24 40.24, 17.98 39.54, 13.79 38.09 C9.59 36.65, 5.12 32.73, 2.8 29.65 C0.49 26.57, -0.57 23.55, -0.11 19.61 C0.34 15.66, 2.61 8.99, 5.52 5.97 C8.43 2.95, 15.3 2.42, 17.36 1.47 C19.42 0.53, 17.9 0.21, 17.86 0.27" stroke="#1971c2" stroke-width="2" fill="none"></path></g><g stroke-linecap="round" transform="translate(15.701996053081189 125.15804285084573) rotate(0 19.47559457085083 19.47559457085086)"><path d="M13.14 1.25 C16.57 -0.25, 21.4 -0.39, 25.39 0.94 C29.38 2.27, 35.05 5.7, 37.1 9.24 C39.15 12.78, 38.48 18.04, 37.69 22.18 C36.91 26.31, 35.32 31.1, 32.42 34.06 C29.52 37.02, 24.69 40, 20.31 39.91 C15.93 39.82, 9.34 36.5, 6.14 33.53 C2.95 30.56, 1.56 25.9, 1.14 22.07 C0.72 18.25, 1.34 14.18, 3.65 10.57 C5.96 6.97, 12.83 2.15, 15.01 0.44 C17.18 -1.27, 16.7 0.08, 16.7 0.33 M27.52 1.99 C30.98 3.55, 34.86 7.58, 36.51 11.11 C38.16 14.64, 38.34 18.95, 37.43 23.17 C36.52 27.39, 34.4 33.88, 31.04 36.46 C27.69 39.03, 21.64 39.32, 17.32 38.63 C13.01 37.94, 8.06 34.91, 5.17 32.33 C2.28 29.76, 0.29 27.11, -0.03 23.18 C-0.34 19.25, 0.97 12.26, 3.29 8.76 C5.6 5.26, 9.8 3.41, 13.85 2.18 C17.91 0.95, 25.49 1.44, 27.61 1.37 C29.74 1.3, 26.64 1.33, 26.58 1.75" stroke="#1971c2" stroke-width="2" fill="none"></path></g></svg>